G04*
G04 #@! TF.GenerationSoftware,Altium Limited,Altium Designer,20.0.11 (256)*
G04*
G04 Layer_Color=32768*
%FSLAX25Y25*%
%MOIN*%
G70*
G01*
G75*
%ADD39C,0.00394*%
D39*
X85835Y237776D02*
X90165D01*
X85835Y247224D02*
X90165D01*
X85835Y237776D02*
Y247224D01*
X90165Y237776D02*
Y247224D01*
X88000Y240630D02*
Y244370D01*
X86130Y242500D02*
X89870D01*
X86335Y14276D02*
X90665D01*
X86335Y23724D02*
X90665D01*
X86335Y14276D02*
Y23724D01*
X90665Y14276D02*
Y23724D01*
X88500Y17130D02*
Y20870D01*
X86630Y19000D02*
X90370D01*
X93335Y140772D02*
X97665D01*
X93335Y131323D02*
X97665D01*
Y140772D01*
X93335Y131323D02*
Y140772D01*
X95500Y134177D02*
Y137917D01*
X93630Y136047D02*
X97370D01*
X160835Y139772D02*
X165165D01*
X160835Y130323D02*
X165165D01*
Y139772D01*
X160835Y130323D02*
Y139772D01*
X163000Y133177D02*
Y136917D01*
X161130Y135047D02*
X164870D01*
X231335Y139772D02*
X235665D01*
X231335Y130323D02*
X235665D01*
Y139772D01*
X231335Y130323D02*
Y139772D01*
X233500Y133177D02*
Y136917D01*
X231630Y135047D02*
X235370D01*
X301335Y139772D02*
X305665D01*
X301335Y130323D02*
X305665D01*
Y139772D01*
X301335Y130323D02*
Y139772D01*
X303500Y133177D02*
Y136917D01*
X301630Y135047D02*
X305370D01*
X371335Y139724D02*
X375665D01*
X371335Y130276D02*
X375665D01*
Y139724D01*
X371335Y130276D02*
Y139724D01*
X373500Y133130D02*
Y136870D01*
X371630Y135000D02*
X375370D01*
X441335Y139224D02*
X445665D01*
X441335Y129776D02*
X445665D01*
Y139224D01*
X441335Y129776D02*
Y139224D01*
X443500Y132630D02*
Y136370D01*
X441630Y134500D02*
X445370D01*
M02*
