G04*
G04 #@! TF.GenerationSoftware,Altium Limited,Altium Designer,20.0.11 (256)*
G04*
G04 Layer_Color=16711935*
%FSLAX25Y25*%
%MOIN*%
G70*
G01*
G75*
%ADD39C,0.00394*%
D39*
X86130Y239154D02*
X89870D01*
X86130Y245847D02*
X89870D01*
X86130Y239154D02*
Y245847D01*
X89870Y239154D02*
Y245847D01*
X86630Y15654D02*
X90370D01*
X86630Y22346D02*
X90370D01*
X86630Y15654D02*
Y22346D01*
X90370Y15654D02*
Y22346D01*
X93630Y139394D02*
X97370D01*
X93630Y132701D02*
X97370D01*
Y139394D01*
X93630Y132701D02*
Y139394D01*
X161130Y138394D02*
X164870D01*
X161130Y131701D02*
X164870D01*
Y138394D01*
X161130Y131701D02*
Y138394D01*
X231630D02*
X235370D01*
X231630Y131701D02*
X235370D01*
Y138394D01*
X231630Y131701D02*
Y138394D01*
X301630D02*
X305370D01*
X301630Y131701D02*
X305370D01*
Y138394D01*
X301630Y131701D02*
Y138394D01*
X371630Y138347D02*
X375370D01*
X371630Y131653D02*
X375370D01*
Y138347D01*
X371630Y131653D02*
Y138347D01*
X441630Y137847D02*
X445370D01*
X441630Y131154D02*
X445370D01*
Y137847D01*
X441630Y131154D02*
Y137847D01*
M02*
