G04*
G04 #@! TF.GenerationSoftware,Altium Limited,Altium Designer,20.0.11 (256)*
G04*
G04 Layer_Color=255*
%FSLAX25Y25*%
%MOIN*%
G70*
G01*
G75*
%ADD12R,0.03937X0.04331*%
%ADD13R,0.03543X0.02756*%
%ADD27C,0.06693*%
%ADD28C,0.09843*%
%ADD29C,0.07047*%
%ADD30R,0.07047X0.07047*%
%ADD31C,0.06000*%
%ADD32C,0.15748*%
%ADD33R,0.05906X0.05906*%
%ADD34C,0.05906*%
%ADD35C,0.16000*%
%ADD36C,0.22500*%
D12*
X76500Y239154D02*
D03*
Y245847D02*
D03*
X76000Y15653D02*
D03*
Y22346D02*
D03*
D13*
X88000Y239547D02*
D03*
Y245453D02*
D03*
X88500Y16047D02*
D03*
Y21953D02*
D03*
X95500Y139000D02*
D03*
X95500Y133095D02*
D03*
X163000Y138000D02*
D03*
Y132095D02*
D03*
X233500Y138000D02*
D03*
Y132095D02*
D03*
X303500Y138000D02*
D03*
X303500Y132095D02*
D03*
X373500Y137953D02*
D03*
Y132047D02*
D03*
X443500Y137453D02*
D03*
Y131547D02*
D03*
D27*
X146000Y186500D02*
D03*
X253000D02*
D03*
X359500D02*
D03*
X465500D02*
D03*
X468500Y94500D02*
D03*
X361500D02*
D03*
X254000D02*
D03*
X146500D02*
D03*
D28*
X173974Y203500D02*
D03*
X120037D02*
D03*
X177911Y256650D02*
D03*
X116100D02*
D03*
X226437Y77650D02*
D03*
X280374D02*
D03*
X222500Y24500D02*
D03*
X284311D02*
D03*
X441000Y77650D02*
D03*
X494937D02*
D03*
X437063Y24500D02*
D03*
X498874D02*
D03*
X333626Y77650D02*
D03*
X387563D02*
D03*
X329689Y24500D02*
D03*
X391500D02*
D03*
X119126Y77650D02*
D03*
X173063D02*
D03*
X115189Y24500D02*
D03*
X177000D02*
D03*
X435300Y256650D02*
D03*
X497111D02*
D03*
X439237Y203500D02*
D03*
X493174D02*
D03*
X328900Y256500D02*
D03*
X390711D02*
D03*
X332837Y203350D02*
D03*
X386774D02*
D03*
X222500Y256650D02*
D03*
X284311D02*
D03*
X226437Y203500D02*
D03*
X280374D02*
D03*
D29*
X62000Y36000D02*
D03*
X61500Y253500D02*
D03*
X478500Y125000D02*
D03*
Y135000D02*
D03*
Y145000D02*
D03*
X408500D02*
D03*
Y135000D02*
D03*
Y125000D02*
D03*
X338500Y145000D02*
D03*
Y135000D02*
D03*
Y125000D02*
D03*
X268500Y145000D02*
D03*
Y135000D02*
D03*
Y125000D02*
D03*
X198500Y145000D02*
D03*
Y135000D02*
D03*
Y125000D02*
D03*
X128500Y145000D02*
D03*
Y135000D02*
D03*
Y125000D02*
D03*
D30*
X62000Y26000D02*
D03*
X61500Y243500D02*
D03*
X478500Y155000D02*
D03*
X408500D02*
D03*
X338500D02*
D03*
X268500D02*
D03*
X198500D02*
D03*
X128500D02*
D03*
D31*
X55181Y162988D02*
D03*
Y152201D02*
D03*
Y141413D02*
D03*
Y130626D02*
D03*
Y119839D02*
D03*
Y109051D02*
D03*
X44000Y103638D02*
D03*
Y114425D02*
D03*
Y125213D02*
D03*
Y168362D02*
D03*
Y157575D02*
D03*
Y146787D02*
D03*
Y136000D02*
D03*
X55181Y173776D02*
D03*
Y98264D02*
D03*
X537910Y52335D02*
D03*
Y63240D02*
D03*
Y74146D02*
D03*
Y85051D02*
D03*
X549090Y90504D02*
D03*
Y79598D02*
D03*
Y46882D02*
D03*
Y57787D02*
D03*
Y68693D02*
D03*
X549500Y219406D02*
D03*
Y208500D02*
D03*
Y197594D02*
D03*
Y186689D02*
D03*
X538319Y181236D02*
D03*
Y192142D02*
D03*
Y224858D02*
D03*
Y213953D02*
D03*
Y203047D02*
D03*
D32*
X49591Y201610D02*
D03*
Y70390D02*
D03*
X543500Y19500D02*
D03*
Y117886D02*
D03*
X543910Y252240D02*
D03*
Y153854D02*
D03*
D33*
X444000Y157500D02*
D03*
X373500D02*
D03*
X304000D02*
D03*
X234000D02*
D03*
X164000D02*
D03*
X95000D02*
D03*
D34*
X444000Y167500D02*
D03*
Y177500D02*
D03*
X373500Y167500D02*
D03*
Y177500D02*
D03*
X304000Y167500D02*
D03*
Y177500D02*
D03*
X234000Y167500D02*
D03*
Y177500D02*
D03*
X164000Y167500D02*
D03*
Y177500D02*
D03*
X95000Y167500D02*
D03*
Y177500D02*
D03*
D35*
X475500Y109000D02*
D03*
Y172000D02*
D03*
X405500D02*
D03*
Y109000D02*
D03*
X335500Y172000D02*
D03*
Y109000D02*
D03*
X265500Y172000D02*
D03*
Y109000D02*
D03*
X195500Y172000D02*
D03*
Y109000D02*
D03*
X125500Y172000D02*
D03*
Y109000D02*
D03*
D36*
X584500Y65000D02*
D03*
Y205000D02*
D03*
X79500Y65000D02*
D03*
Y205000D02*
D03*
M02*
