G04*
G04 #@! TF.GenerationSoftware,Altium Limited,Altium Designer,20.0.11 (256)*
G04*
G04 Layer_Physical_Order=1*
G04 Layer_Color=255*
%FSLAX25Y25*%
%MOIN*%
G70*
G01*
G75*
%ADD10C,0.01000*%
%ADD12R,0.03937X0.04331*%
%ADD13R,0.03543X0.02756*%
%ADD27C,0.06693*%
%ADD28C,0.09843*%
%ADD29C,0.07047*%
%ADD30R,0.07047X0.07047*%
%ADD31C,0.06000*%
%ADD32C,0.15748*%
%ADD33R,0.05906X0.05906*%
%ADD34C,0.05906*%
%ADD35C,0.16000*%
%ADD36C,0.22500*%
%ADD37C,0.05000*%
D10*
X338207Y135500D02*
X338500D01*
X334801Y132095D02*
X338207Y135500D01*
X303500Y131595D02*
X304000Y132095D01*
X405000Y132000D02*
X408500Y135500D01*
X365500Y132000D02*
X405000D01*
X499595Y146053D02*
Y207905D01*
X467421Y240079D02*
X499595Y207905D01*
X111605Y240079D02*
X467421D01*
X387563Y78650D02*
X411153D01*
X46360Y163000D02*
X57531D01*
X497597Y71228D02*
X501595Y75227D01*
X418574Y71228D02*
X497597D01*
X411153Y78650D02*
X418574Y71228D01*
X503595Y74398D02*
Y210733D01*
X498425Y69228D02*
X503595Y74398D01*
X292295Y69228D02*
X498425D01*
X280374Y81150D02*
X292295Y69228D01*
X234000Y75919D02*
Y132095D01*
X58181Y108817D02*
Y109413D01*
X40216Y90853D02*
X58181Y108817D01*
X124000Y21500D02*
Y70414D01*
X118500Y16000D02*
X124000Y21500D01*
X96552Y16000D02*
X118500D01*
X58181Y173776D02*
X60331D01*
X114090Y246079D02*
X471078D01*
X87169Y273000D02*
X114090Y246079D01*
X471078D02*
X505595Y211562D01*
X126864Y135500D02*
X128500D01*
X124458Y133095D02*
X126864Y135500D01*
X95500Y133095D02*
X124458D01*
X58181Y98626D02*
X78555Y119000D01*
X81012D01*
X95106Y133095D01*
X95500D01*
X95500Y139000D02*
X122000D01*
X55181Y173776D02*
X58181D01*
X60331D02*
X95106Y139000D01*
X95500D01*
X198207Y135500D02*
X198500D01*
X194801Y132095D02*
X198207Y135500D01*
X163000Y132095D02*
X194801D01*
X163000Y104500D02*
Y132095D01*
X443106Y137453D02*
X443500Y137846D01*
X71504Y243500D02*
X76500Y238504D01*
X59000Y174957D02*
Y243500D01*
X128500Y145500D02*
X163000D01*
Y138000D02*
Y145500D01*
X163500D02*
X198500D01*
X408500D02*
X443500D01*
Y137846D02*
Y145500D01*
X478500D01*
X373500D02*
X408500D01*
X338500D02*
X373500D01*
Y137953D02*
X373500Y137953D01*
X373500Y137953D02*
Y145500D01*
X233500D02*
X268500D01*
X198500D02*
X233500D01*
Y138000D02*
Y145500D01*
X234000Y132095D02*
X264801D01*
X233500D02*
X234000D01*
X268207Y135500D02*
X268500D01*
X264801Y132095D02*
X268207Y135500D01*
X303500Y115500D02*
Y131595D01*
X304000Y132095D02*
X334801D01*
X303500D02*
X304000D01*
X303500Y145500D02*
X338500D01*
X268500D02*
X303500D01*
Y138000D02*
Y145500D01*
X434047Y131547D02*
X443500D01*
X433500Y131000D02*
X434047Y131547D01*
X441000Y78650D02*
Y93000D01*
X408500Y125500D02*
X441000Y93000D01*
X443106Y137453D02*
X443500D01*
X474547Y131547D02*
X478500Y135500D01*
X443500Y131547D02*
X474547D01*
X58181Y151967D02*
Y152563D01*
X48864Y142650D02*
X58181Y151967D01*
X64153Y7850D02*
X130850D01*
X185000Y62000D01*
X41216Y30786D02*
X64153Y7850D01*
X64831Y10000D02*
X90552D01*
X50286Y24546D02*
X64831Y10000D01*
X90552D02*
X96552Y16000D01*
X89724Y12000D02*
X119126Y41402D01*
X79654Y12000D02*
X89724D01*
X77665Y13988D02*
X79654Y12000D01*
X61500Y243500D02*
X71504D01*
X59000D02*
X61500D01*
X119126Y78650D02*
Y81150D01*
Y41402D02*
Y78650D01*
X58181Y174138D02*
X59000Y174957D01*
X95000Y177500D02*
X102500Y185000D01*
Y222500D01*
X89272Y235728D02*
X102500Y222500D01*
X89272Y235728D02*
Y238669D01*
X88394Y239547D02*
X89272Y238669D01*
X88000Y239547D02*
X88394D01*
X40216Y241717D02*
X65500Y267000D01*
X40216Y192858D02*
Y241717D01*
Y192858D02*
X47000Y186075D01*
X38217Y242545D02*
X45500Y249828D01*
X38217Y167782D02*
Y242545D01*
Y167782D02*
X42136Y163862D01*
X36217Y244045D02*
X63172Y271000D01*
X36217Y166953D02*
Y244045D01*
Y166953D02*
X41366Y161803D01*
X34216Y244873D02*
X62343Y273000D01*
X34216Y159933D02*
Y244873D01*
Y159933D02*
X47000Y147150D01*
X45498Y163862D02*
X46360Y163000D01*
X42136Y163862D02*
X45498D01*
X41366Y161803D02*
X43134D01*
X47000Y157937D01*
X44774Y140500D02*
X46923Y142650D01*
X42136Y140500D02*
X44774D01*
X38217Y136581D02*
X42136Y140500D01*
X38217Y62490D02*
Y136581D01*
Y62490D02*
X41216Y59490D01*
Y30786D02*
Y59490D01*
X40216Y63318D02*
Y90853D01*
Y63318D02*
X43216Y60318D01*
Y32783D02*
Y60318D01*
X229081Y71000D02*
X234000Y75919D01*
X50286Y24546D02*
Y25714D01*
X43216Y32783D02*
X50286Y25714D01*
X77469Y13988D02*
X77665D01*
X76000Y15457D02*
X77469Y13988D01*
X76000Y15457D02*
Y15653D01*
X68840Y18160D02*
X73494D01*
X74335Y17319D01*
X74532D01*
X76000Y15850D01*
Y15653D02*
Y15850D01*
X64000Y23000D02*
X68840Y18160D01*
X106000Y33500D02*
Y127500D01*
X96000Y23154D02*
X106000Y33500D01*
X64000Y33000D02*
X106000Y33500D01*
X76500Y238307D02*
Y238504D01*
X88394Y239547D02*
X91500Y242654D01*
Y247224D01*
X85224Y253500D02*
X91500Y247224D01*
X65000Y253500D02*
X85224D01*
X124000Y70414D02*
X124586Y71000D01*
X229081D01*
X46923Y142650D02*
X48864D01*
X62343Y273000D02*
X87169D01*
X86340Y271000D02*
X113262Y244079D01*
X85512Y269000D02*
X112433Y242079D01*
X84684Y267000D02*
X111605Y240079D01*
X505595Y195905D02*
Y211562D01*
Y195905D02*
X508500Y193000D01*
X113262Y244079D02*
X470250D01*
X112433Y242079D02*
X469421D01*
X63172Y271000D02*
X86340D01*
X470250Y244079D02*
X503595Y210733D01*
X65500Y267000D02*
X84684D01*
X64000Y269000D02*
X85512D01*
X469421Y242079D02*
X501595Y209905D01*
X116500Y167500D02*
X128500Y155500D01*
X88500Y16047D02*
X88894D01*
X96000Y23154D01*
X198500Y125500D02*
X226437Y97563D01*
Y81150D02*
Y97563D01*
X333626Y81150D02*
X345000Y92524D01*
Y113435D01*
X338500Y119935D02*
X345000Y113435D01*
X338500Y119935D02*
Y125500D01*
X57531Y163000D02*
X58031Y163500D01*
X45500Y249828D02*
Y250500D01*
X64000Y269000D01*
X501595Y75227D02*
Y209905D01*
X122000Y139000D02*
X128500Y145500D01*
X95000Y157500D02*
X97453Y155047D01*
X58031Y163500D02*
X58181Y163350D01*
X47000Y168724D02*
Y186075D01*
X494937Y141394D02*
X499595Y146053D01*
X494937Y81150D02*
Y141394D01*
X119126Y81150D02*
X135000Y97024D01*
Y113435D01*
X128500Y119935D02*
X135000Y113435D01*
X128500Y119935D02*
Y125500D01*
X198500Y145500D02*
X205500Y152500D01*
Y175935D01*
X194063Y187372D02*
X205500Y175935D01*
X186603Y187372D02*
X194063D01*
X173974Y200000D02*
X186603Y187372D01*
X268500Y145500D02*
X280374Y157374D01*
Y200000D01*
X128500Y145500D02*
X133524Y140476D01*
Y130524D02*
Y140476D01*
X128500Y125500D02*
X133524Y130524D01*
X198500Y145500D02*
X203524Y140476D01*
Y130524D02*
Y140476D01*
X198500Y125500D02*
X203524Y130524D01*
X478500Y145500D02*
X483524Y140476D01*
Y130524D02*
Y140476D01*
X478500Y125500D02*
X483524Y130524D01*
X268500Y145500D02*
X273524Y140476D01*
Y130524D02*
Y140476D01*
X268500Y125500D02*
X273524Y130524D01*
X338500Y145500D02*
X343524Y140476D01*
Y130524D02*
Y140476D01*
X338500Y125500D02*
X343524Y130524D01*
X95000Y167500D02*
X116500D01*
X326500D02*
X338500Y155500D01*
X304000Y167500D02*
X326500D01*
X256500D02*
X268500Y155500D01*
X234000Y167500D02*
X256500D01*
X186500D02*
X198500Y155500D01*
X164000Y167500D02*
X186500D01*
X396500D02*
X408500Y155500D01*
X373500Y167500D02*
X396500D01*
X408500Y145500D02*
X413524Y140476D01*
Y130524D02*
Y140476D01*
X408500Y125500D02*
X413524Y130524D01*
X408500Y145500D02*
X415500Y152500D01*
Y175935D01*
X404388Y187047D02*
X415500Y175935D01*
X399078Y187047D02*
X404388D01*
X386774Y199350D02*
X399078Y187047D01*
X444000Y167500D02*
X456000Y155500D01*
X478500D01*
X493174Y160174D02*
Y200000D01*
X478500Y145500D02*
X493174Y160174D01*
X77240Y245453D02*
X88000D01*
X77000Y245693D02*
X77240Y245453D01*
X94925Y157425D02*
X95000Y157500D01*
X75894Y21953D02*
X88500D01*
X75000Y22847D02*
X75894Y21953D01*
X551142Y224858D02*
X561500Y214500D01*
Y59291D02*
Y214500D01*
X549090Y46882D02*
X561500Y59291D01*
X538319Y224858D02*
X551142D01*
X525500Y64744D02*
X537910Y52335D01*
X525500Y64744D02*
Y207498D01*
X537408Y219406D01*
X549500D01*
X549090Y57787D02*
X559500Y68197D01*
Y204864D01*
X550411Y213953D02*
X559500Y204864D01*
X538319Y213953D02*
X550411D01*
X527500Y73650D02*
X537910Y63240D01*
X527500Y73650D02*
Y198592D01*
X537408Y208500D01*
X549500D01*
X549090Y68693D02*
X557500Y77102D01*
Y195958D01*
X550411Y203047D02*
X557500Y195958D01*
X538319Y203047D02*
X550411D01*
X530000Y82055D02*
X537910Y74146D01*
X530000Y82055D02*
Y191500D01*
X536095Y197594D01*
X549500D01*
X554000Y187500D02*
X555500Y186000D01*
X554000Y187500D02*
Y188553D01*
X555500Y86008D02*
Y186000D01*
X549090Y79598D02*
X555500Y86008D01*
X550411Y192142D02*
X554000Y188553D01*
X538319Y192142D02*
X550411D01*
X533500Y114629D02*
X537910Y110220D01*
Y85051D02*
Y110220D01*
X533500Y114629D02*
Y182781D01*
X537408Y186689D01*
X549500D01*
X549090Y90504D02*
X553500Y94913D01*
Y166055D01*
X538319Y181236D02*
X553500Y166055D01*
D12*
X76500Y239154D02*
D03*
Y245847D02*
D03*
X76000Y15653D02*
D03*
Y22346D02*
D03*
D13*
X88000Y239547D02*
D03*
Y245453D02*
D03*
X88500Y16047D02*
D03*
Y21953D02*
D03*
X95500Y139000D02*
D03*
X95500Y133095D02*
D03*
X163000Y138000D02*
D03*
Y132095D02*
D03*
X233500Y138000D02*
D03*
Y132095D02*
D03*
X303500Y138000D02*
D03*
X303500Y132095D02*
D03*
X373500Y137953D02*
D03*
Y132047D02*
D03*
X443500Y137453D02*
D03*
Y131547D02*
D03*
D27*
X146000Y186500D02*
D03*
X253000D02*
D03*
X359500D02*
D03*
X465500D02*
D03*
X468500Y94500D02*
D03*
X361500D02*
D03*
X254000D02*
D03*
X146500D02*
D03*
D28*
X173974Y203500D02*
D03*
X120037D02*
D03*
X177911Y256650D02*
D03*
X116100D02*
D03*
X226437Y77650D02*
D03*
X280374D02*
D03*
X222500Y24500D02*
D03*
X284311D02*
D03*
X441000Y77650D02*
D03*
X494937D02*
D03*
X437063Y24500D02*
D03*
X498874D02*
D03*
X333626Y77650D02*
D03*
X387563D02*
D03*
X329689Y24500D02*
D03*
X391500D02*
D03*
X119126Y77650D02*
D03*
X173063D02*
D03*
X115189Y24500D02*
D03*
X177000D02*
D03*
X435300Y256650D02*
D03*
X497111D02*
D03*
X439237Y203500D02*
D03*
X493174D02*
D03*
X328900Y256500D02*
D03*
X390711D02*
D03*
X332837Y203350D02*
D03*
X386774D02*
D03*
X222500Y256650D02*
D03*
X284311D02*
D03*
X226437Y203500D02*
D03*
X280374D02*
D03*
D29*
X62000Y36000D02*
D03*
X61500Y253500D02*
D03*
X478500Y125000D02*
D03*
Y135000D02*
D03*
Y145000D02*
D03*
X408500D02*
D03*
Y135000D02*
D03*
Y125000D02*
D03*
X338500Y145000D02*
D03*
Y135000D02*
D03*
Y125000D02*
D03*
X268500Y145000D02*
D03*
Y135000D02*
D03*
Y125000D02*
D03*
X198500Y145000D02*
D03*
Y135000D02*
D03*
Y125000D02*
D03*
X128500Y145000D02*
D03*
Y135000D02*
D03*
Y125000D02*
D03*
D30*
X62000Y26000D02*
D03*
X61500Y243500D02*
D03*
X478500Y155000D02*
D03*
X408500D02*
D03*
X338500D02*
D03*
X268500D02*
D03*
X198500D02*
D03*
X128500D02*
D03*
D31*
X55181Y162988D02*
D03*
Y152201D02*
D03*
Y141413D02*
D03*
Y130626D02*
D03*
Y119839D02*
D03*
Y109051D02*
D03*
X44000Y103638D02*
D03*
Y114425D02*
D03*
Y125213D02*
D03*
Y168362D02*
D03*
Y157575D02*
D03*
Y146787D02*
D03*
Y136000D02*
D03*
X55181Y173776D02*
D03*
Y98264D02*
D03*
X537910Y52335D02*
D03*
Y63240D02*
D03*
Y74146D02*
D03*
Y85051D02*
D03*
X549090Y90504D02*
D03*
Y79598D02*
D03*
Y46882D02*
D03*
Y57787D02*
D03*
Y68693D02*
D03*
X549500Y219406D02*
D03*
Y208500D02*
D03*
Y197594D02*
D03*
Y186689D02*
D03*
X538319Y181236D02*
D03*
Y192142D02*
D03*
Y224858D02*
D03*
Y213953D02*
D03*
Y203047D02*
D03*
D32*
X49591Y201610D02*
D03*
Y70390D02*
D03*
X543500Y19500D02*
D03*
Y117886D02*
D03*
X543910Y252240D02*
D03*
Y153854D02*
D03*
D33*
X444000Y157500D02*
D03*
X373500D02*
D03*
X304000D02*
D03*
X234000D02*
D03*
X164000D02*
D03*
X95000D02*
D03*
D34*
X444000Y167500D02*
D03*
Y177500D02*
D03*
X373500Y167500D02*
D03*
Y177500D02*
D03*
X304000Y167500D02*
D03*
Y177500D02*
D03*
X234000Y167500D02*
D03*
Y177500D02*
D03*
X164000Y167500D02*
D03*
Y177500D02*
D03*
X95000Y167500D02*
D03*
Y177500D02*
D03*
D35*
X475500Y109000D02*
D03*
Y172000D02*
D03*
X405500D02*
D03*
Y109000D02*
D03*
X335500Y172000D02*
D03*
Y109000D02*
D03*
X265500Y172000D02*
D03*
Y109000D02*
D03*
X195500Y172000D02*
D03*
Y109000D02*
D03*
X125500Y172000D02*
D03*
Y109000D02*
D03*
D36*
X584500Y65000D02*
D03*
Y205000D02*
D03*
X79500Y65000D02*
D03*
Y205000D02*
D03*
D37*
X163000Y104500D02*
D03*
X303500Y115500D02*
D03*
X433500Y131000D02*
D03*
X185000Y62000D02*
D03*
X508500Y193000D02*
D03*
X365500Y132000D02*
D03*
X106000Y127500D02*
D03*
M02*
