G04*
G04 #@! TF.GenerationSoftware,Altium Limited,Altium Designer,20.0.11 (256)*
G04*
G04 Layer_Color=32896*
%FSLAX25Y25*%
%MOIN*%
G70*
G01*
G75*
%ADD10C,0.01000*%
D10*
X490000Y247791D02*
Y241793D01*
X488001Y243792D01*
X486001Y241793D01*
Y247791D01*
X484002D02*
Y241793D01*
X481003D01*
X480003Y242793D01*
Y243792D01*
X481003Y244792D01*
X484002D01*
X481003D01*
X480003Y245792D01*
Y246791D01*
X481003Y247791D01*
X484002D01*
X478004Y244792D02*
X474005D01*
X472006Y241793D02*
Y245792D01*
X470007Y247791D01*
X468007Y245792D01*
Y241793D01*
Y244792D01*
X472006D01*
X466008Y247791D02*
Y243792D01*
X464008Y241793D01*
X462009Y243792D01*
Y247791D01*
X460010Y244792D02*
X456011D01*
X451013Y241793D02*
Y247791D01*
X454012Y244792D01*
X450013D01*
X444015Y247791D02*
X448014D01*
Y244792D01*
X446014Y245792D01*
X445014D01*
X444015Y244792D01*
Y242793D01*
X445014Y241793D01*
X447014D01*
X448014Y242793D01*
X442016Y246791D02*
X441016Y247791D01*
X439016D01*
X438017Y246791D01*
Y242793D01*
X439016Y241793D01*
X441016D01*
X442016Y242793D01*
Y246791D01*
X432019Y247791D02*
X434018Y246791D01*
X436018Y244792D01*
Y242793D01*
X435018Y241793D01*
X433018D01*
X432019Y242793D01*
Y243792D01*
X433018Y244792D01*
X436018D01*
X430019D02*
X426021D01*
X424021Y247791D02*
X420023D01*
X422022D01*
Y241793D01*
X418023Y247791D02*
X414025D01*
Y246791D01*
X418023Y242793D01*
Y241793D01*
X412025Y247791D02*
Y241793D01*
X409026D01*
X408027Y242793D01*
Y243792D01*
X409026Y244792D01*
X412025D01*
X409026D01*
X408027Y245792D01*
Y246791D01*
X409026Y247791D01*
X412025D01*
X406027Y241793D02*
Y247791D01*
X403028D01*
X402029Y246791D01*
Y244792D01*
X403028Y243792D01*
X406027D01*
X404028D02*
X402029Y241793D01*
X490000Y232195D02*
Y238193D01*
X487001D01*
X486001Y237194D01*
Y235194D01*
X487001Y234195D01*
X490000D01*
X488001D02*
X486001Y232195D01*
X481003D02*
X483002D01*
X484002Y233195D01*
Y235194D01*
X483002Y236194D01*
X481003D01*
X480003Y235194D01*
Y234195D01*
X484002D01*
X478004Y236194D02*
X476005Y232195D01*
X474005Y236194D01*
X466008Y232195D02*
Y236194D01*
X464008Y238193D01*
X462009Y236194D01*
Y232195D01*
Y235194D01*
X466008D01*
X490000Y222598D02*
Y228596D01*
X488001Y226596D01*
X486001Y228596D01*
Y222598D01*
X483002Y226596D02*
X481003D01*
X480003Y225597D01*
Y222598D01*
X483002D01*
X484002Y223597D01*
X483002Y224597D01*
X480003D01*
X478004Y226596D02*
Y222598D01*
Y224597D01*
X477004Y225597D01*
X476005Y226596D01*
X475005D01*
X468007D02*
X471006D01*
X472006Y225597D01*
Y223597D01*
X471006Y222598D01*
X468007D01*
X466008Y228596D02*
Y222598D01*
Y225597D01*
X465008Y226596D01*
X463009D01*
X462009Y225597D01*
Y222598D01*
X459010Y221598D02*
X458010Y222598D01*
Y223597D01*
X459010D01*
Y222598D01*
X458010D01*
X459010Y221598D01*
X460010Y220598D01*
X444015Y222598D02*
X448014D01*
X444015Y226596D01*
Y227596D01*
X445014Y228596D01*
X447014D01*
X448014Y227596D01*
X442016D02*
X441016Y228596D01*
X439016D01*
X438017Y227596D01*
Y223597D01*
X439016Y222598D01*
X441016D01*
X442016Y223597D01*
Y227596D01*
X432019Y222598D02*
X436018D01*
X432019Y226596D01*
Y227596D01*
X433018Y228596D01*
X435018D01*
X436018Y227596D01*
X430019D02*
X429020Y228596D01*
X427020D01*
X426021Y227596D01*
Y223597D01*
X427020Y222598D01*
X429020D01*
X430019Y223597D01*
Y227596D01*
X490000Y218998D02*
Y213000D01*
X487001D01*
X486001Y214000D01*
Y214999D01*
X487001Y215999D01*
X490000D01*
X487001D01*
X486001Y216999D01*
Y217998D01*
X487001Y218998D01*
X490000D01*
X481003Y213000D02*
X483002D01*
X484002Y214000D01*
Y215999D01*
X483002Y216999D01*
X481003D01*
X480003Y215999D01*
Y214999D01*
X484002D01*
X478004Y213000D02*
Y216999D01*
X475005D01*
X474005Y215999D01*
Y213000D01*
X466008Y218998D02*
Y213000D01*
Y215999D01*
X462009D01*
Y218998D01*
Y213000D01*
X460010Y216999D02*
Y214000D01*
X459010Y213000D01*
X456011D01*
Y216999D01*
X450013D02*
X453012D01*
X454012Y215999D01*
Y214000D01*
X453012Y213000D01*
X450013D01*
X448014D02*
Y218998D01*
Y214999D02*
X445014Y216999D01*
X448014Y214999D02*
X445014Y213000D01*
X439016D02*
X441016D01*
X442016Y214000D01*
Y215999D01*
X441016Y216999D01*
X439016D01*
X438017Y215999D01*
Y214999D01*
X442016D01*
X436018Y213000D02*
X434018D01*
X435018D01*
Y218998D01*
X436018D01*
X431019Y213000D02*
X429020D01*
X430019D01*
Y218998D01*
X431019D01*
M02*
