M48
;Layer_Color=9474304
;FILE_FORMAT=2:5
INCH,LZ
;TYPE=PLATED
T1F00S00C0.02800
T2F00S00C0.03543
T3F00S00C0.04094
T4F00S00C0.04291
T5F00S00C0.05906
T6F00S00C0.06968
T7F00S00C0.12008
T8F00S00C0.12205
T9F00S00C0.13400
T10F00S00C0.18000
%
T01
X0185Y0062
X04335Y0131
X05085Y0193
X03655Y0132
X03035Y01155
X0163Y01045
X0106Y01275
T02
X03735Y01575
Y01675
Y01775
X0444
Y01675
Y01575
X0304
Y01675
Y01775
X0234
Y01675
Y01575
X0164
Y01675
Y01775
X0095
Y01675
Y01575
T03
X053791Y0052335
Y006324
X054909Y0057787
Y0046882
Y0068693
Y0079598
Y0090504
X053791Y0085051
Y0074146
X0538319Y0181236
Y0192142
Y0203047
Y0213953
Y0224858
X05495Y0219406
Y02085
Y0197594
Y0186689
X0055181Y0173776
Y0162988
Y0152201
Y0141413
Y0130626
Y0119839
Y0109051
Y0098264
X0044Y0103638
Y0114425
Y0125213
Y0136
Y0146787
Y0157575
Y0168362
T04
X0062Y0026
Y0036
X04085Y0125
Y0135
Y0145
Y0155
X04785
Y0145
Y0135
Y0125
X03385
Y0135
Y0145
Y0155
X02685
Y0145
Y0135
Y0125
X01985
Y0135
Y0145
Y0155
X01285
Y0145
Y0135
Y0125
X00615Y02435
Y02535
T05
X04685Y00945
X04655Y01865
X03595
X03615Y00945
X0254
X0253Y01865
X0146
X01465Y00945
T06
X0115189Y00245
X0177
X02225
X0284311
X0329689
X03915
X0437063
X0498874
X0494937Y007765
X0441
X0387563
X0386774Y020335
X0439237Y02035
X0493174
X0332837Y020335
X0280374Y02035
X0226437
X0226437Y007765
X0280374
X0333626
X0173063
X0119126
X0120037Y02035
X0173974
X0177911Y025665
X01161
X02225
X0284311
X03289Y02565
X0390711
X04353Y025665
X0497111
T07
X0049591Y007039
Y020161
T08
X05435Y00195
Y0117886
X054391Y0153854
Y025224
T09
X04055Y0109
Y0172
X04755
Y0109
X03355
Y0172
X02655
Y0109
X01955
Y0172
X01255
Y0109
T10
X00795Y0065
X05845
Y0205
X00795
M30
